<?xml version="1.0" encoding="UTF-8" standalone="no"?>
<svg
   version="1.1"
   width="1400"
   height="504"
   id="svg48"
   sodipodi:docname="logo_short.svg"
   inkscape:version="1.4.2 (ebf0e940d0, 2025-05-08)"
   xmlns:inkscape="http://www.inkscape.org/namespaces/inkscape"
   xmlns:sodipodi="http://sodipodi.sourceforge.net/DTD/sodipodi-0.dtd"
   xmlns="http://www.w3.org/2000/svg"
   xmlns:svg="http://www.w3.org/2000/svg">
  <defs
     id="defs48" />
  <sodipodi:namedview
     id="namedview48"
     pagecolor="#ffffff"
     bordercolor="#000000"
     borderopacity="0.25"
     inkscape:showpageshadow="2"
     inkscape:pageopacity="0.0"
     inkscape:pagecheckerboard="0"
     inkscape:deskcolor="#d1d1d1"
     inkscape:zoom="0.71514907"
     inkscape:cx="890.02423"
     inkscape:cy="251.69578"
     inkscape:window-width="1920"
     inkscape:window-height="1019"
     inkscape:window-x="0"
     inkscape:window-y="0"
     inkscape:window-maximized="1"
     inkscape:current-layer="svg48" />
  <path
     d="m 74,99 c 13.86,0 27.72,0 42,0 0.0146,6.60048 0.0292,13.20097 0.0442,20.00146 0.0504,21.83685 0.11685,43.67362 0.19153,65.51039 0.0449,13.23627 0.0843,26.47252 0.11072,39.70885 0.023,11.54319 0.0565,23.0863 0.10226,34.62942 0.0238,6.10616 0.0426,12.21224 0.0489,18.31844 0.006,5.76036 0.0262,11.5205 0.0567,17.28078 0.009,2.10165 0.0125,4.20333 0.0107,6.305 -0.0147,25.24115 2.85545,49.71078 20.7475,69.05816 15.136,14.01103 34.44634,17.5902 54.375,17.5625 0.66102,-5.4e-4 1.32204,-10e-4 2.0031,-0.002 19.63214,-0.0739 36.65111,-4.558 51.3094,-18.373 14.87074,-15.24858 20.13405,-37.48507 20.15822,-58.2318 0.005,-0.90844 0.01,-1.81689 0.015,-2.75286 0.0153,-3.03238 0.0237,-6.06473 0.0321,-9.09713 0.01,-2.17834 0.0196,-4.35669 0.03,-6.53503 0.027,-5.90641 0.048,-11.81283 0.068,-17.71927 0.0219,-6.1753 0.0493,-12.35058 0.0761,-18.52586 0.0499,-11.69057 0.0948,-23.38115 0.13802,-35.07174 0.0494,-13.31068 0.10431,-26.62135 0.15968,-39.93201 C 265.79084,153.75622 265.89697,126.37812 266,99 c 13.86,0 27.72,0 42,0 0.0679,28.59979 0.12307,57.19952 0.15544,85.79937 0.0154,13.28111 0.0365,26.56214 0.0709,39.84321 0.03,11.58344 0.0493,23.16685 0.056,34.75033 0.004,6.12638 0.0129,12.25265 0.0349,18.37899 0.0206,5.78165 0.0266,11.56314 0.0221,17.34483 8.2e-4,2.10728 0.007,4.21457 0.0183,6.32182 0.18162,34.65165 -7.11865,67.64487 -31.67012,93.37395 -22.85215,21.82797 -53.21597,30.82379 -84.27148,30.57861 -2.41529,-0.0161 -4.82891,-2e-5 -7.24414,0.019 -13.73447,0.0194 -27.26255,-1.53093 -40.29688,-6.09766 -0.73952,-0.25491 -1.47904,-0.50982 -2.24097,-0.77246 -25.63967,-9.19759 -44.880695,-27.02097 -56.884782,-51.3835 -8.137218,-17.27793 -11.93572,-36.63194 -11.869523,-55.66676 -8.54e-4,-0.91424 -0.0017,-1.82848 -0.0026,-2.77042 -0.0016,-3.04 0.0038,-6.07995 0.0093,-9.11994 2.83e-4,-2.1885 1.24e-4,-4.37699 -4.42e-4,-6.56548 -2.86e-4,-5.92491 0.0056,-11.84979 0.01257,-17.77469 0.0063,-6.19797 0.0068,-12.39593 0.008,-18.5939 0.0031,-11.72947 0.01131,-23.45894 0.02135,-35.18841 0.0079,-9.37421 0.01337,-18.74843 0.01709,-28.12264 2.63e-4,-0.66075 5.26e-4,-1.3215 7.96e-4,-2.00227 0.0013,-3.31503 0.0026,-6.63006 0.0038,-9.94508 C 73.960123,153.93792 73.978459,126.46896 74,99 Z"
     fill="#000000"
     id="path1" />
  <path
     d="m 732,192 c 22.54915,17.92368 32.93722,43.17214 37,71 1.17629,15.29178 1,30.66304 1,46 -50.16,0 -100.32,0 -152,0 3.45074,37.2166 3.45074,37.2166 24.35937,67.15234 21.09221,14.75831 46.72394,14.57467 71.26319,10.64942 14.35254,-2.55123 27.87315,-7.03737 41.18994,-12.91895 C 757,373 757,373 759,373 c 0,12.21 0,24.42 0,37 -19.49874,8.10159 -19.49874,8.10159 -29.375,10.875 -0.66242,0.19038 -1.32483,0.38076 -2.00732,0.5769 -12.38682,3.31946 -24.77133,3.89693 -37.51245,3.86377 -2.53617,-0.003 -5.07116,0.0204 -7.60718,0.0457 C 672.27524,425.40117 662.92757,424.51703 653,422 c -0.76756,-0.19344 -1.53511,-0.38688 -2.32593,-0.58618 C 637.17874,417.71144 624.58583,411.14323 614,402 c -0.72316,-0.58008 -1.44633,-1.16016 -2.19141,-1.75781 -23.3282,-19.39284 -33.16936,-50.58044 -36.05859,-79.80469 -3.35467,-38.54022 1.937,-81.20049 26.75,-112.3125 1.48201,-1.72397 2.98095,-3.43358 4.5,-5.125 0.62391,-0.70641 1.24781,-1.41281 1.89062,-2.14063 C 639.98653,167.67299 696.24885,166.05244 732,192 Z m -78,20 c -0.68707,0.25523 -1.37414,0.51047 -2.08203,0.77344 -13.15345,5.65572 -22.36509,18.4184 -27.5625,31.26562 -1.56314,4.3476 -2.70017,8.77297 -3.73047,13.27344 -0.25173,1.09236 -0.25173,1.09236 -0.50854,2.20679 C 618.97865,264.94307 619,269.25072 619,275 c 35.31,0 70.62,0 107,0 -1.17779,-20.02249 -3.04034,-41.64972 -19,-56 -14.01445,-11.80745 -36.17693,-13.75272 -53,-7 z"
     fill="#000000"
     id="path2" />
  <path
     d="m 948,100 c 74.25,0 148.5,0 225,0 0,12.21 0,24.42 0,37 -30.03,0 -60.06,0 -91,0 0,93.72 0,187.44 0,284 -13.86,0 -27.72,0 -42,0 0,-93.72 0,-187.44 0,-284 -30.36,0 -60.72,0 -92,0 0,-12.21 0,-24.42 0,-37 z"
     fill="#000000"
     id="path3" />
  <path
     d="m 452.72461,174.68433 c 2.37613,0.003 4.75098,-0.0203 7.12695,-0.0456 14.40998,-0.0606 28.49652,1.76214 42.27344,6.11132 0.81694,0.25024 1.63389,0.50048 2.47559,0.7583 8.06964,2.55367 15.75324,5.8822 23.39941,9.4917 -2.33262,7.36985 -5.17979,14.44439 -8.1875,21.5625 -0.46342,1.10409 -0.92683,2.20817 -1.4043,3.34571 -1.13314,2.69851 -2.26926,5.39572 -3.4082,8.09179 -4.1112,-0.5865 -7.77964,-1.51105 -11.66797,-2.96093 -1.05896,-0.3893 -2.11793,-0.7786 -3.20898,-1.17969 -1.09248,-0.40735 -2.18496,-0.81469 -3.31055,-1.23438 -14.72127,-5.48179 -27.7354,-8.80289 -43.5,-8.875 -1.10795,-0.0206 -2.2159,-0.0412 -3.35742,-0.0625 -10.82381,-0.0506 -23.18381,1.405 -31.66992,8.8086 -5.0607,5.35765 -6.9702,11.19678 -7.66016,18.4414 0.35564,7.76217 2.88388,15.4645 8.375,21.0625 13.7043,11.72693 31.91764,18.22071 48.28906,25.14844 24.70441,10.46329 48.95317,22.17811 60.70313,47.85547 6.15538,18.29915 4.33265,39.00797 -3.74219,56.37109 -9.14421,16.80988 -24.06027,27.24061 -42.08203,32.875 -3.70876,1.03891 -7.39116,2.00396 -11.16797,2.75 -0.8677,0.17733 -1.7354,0.35466 -2.62939,0.53736 -9.4115,1.69697 -18.72095,1.80127 -28.25196,1.77832 -2.71835,-0.003 -5.43559,0.0203 -8.15381,0.0456 -23.93935,0.087 -43.4,-4.57891 -64.96484,-15.36133 0,-12.21 0,-24.42 0,-37 3.54913,0.70983 6.05149,1.30996 9.26563,2.67188 0.79881,0.33234 1.59763,0.66467 2.42065,1.00708 0.84603,0.35344 1.69206,0.70689 2.56372,1.07104 9.11346,3.71124 18.19884,6.87716 27.75,9.25 1.27102,0.31969 2.54203,0.63938 3.85156,0.96875 20.54493,4.61135 45.67482,4.97819 64.51563,-5.24609 6.56815,-4.29756 10.32875,-9.46029 12.19531,-17.08984 C 491.02598,356.82578 490.33431,348.9266 486,341 c -12.96628,-17.2418 -38.46485,-25.2441 -57.5,-33.6875 -23.82554,-10.62715 -45.6835,-22.30276 -55.53125,-48.0039 -5.16,-16.7939 -2.87062,-36.06008 5.23047,-51.41797 C 381.22903,203.02716 384.93938,199.01727 389,195 c 0.5182,-0.55172 1.03641,-1.10343 1.57031,-1.67187 15.84755,-15.43265 41.17491,-18.70146 62.1543,-18.64375 z"
     fill="#000000"
     id="path4" />
  <path
     d="m 810,100 c 38.61,0 77.22,0 117,0 0,7.59 0,15.18 0,23 -5.0898,1.28391 -10.17992,2.5664 -15.271,3.84521 -1.73263,0.43568 -3.46505,0.8722 -5.19726,1.30957 -2.48659,0.6277 -4.97393,1.25238 -7.46143,1.87647 -0.77713,0.19686 -1.55426,0.39373 -2.35495,0.59656 C 891.22774,132 891.22774,132 889,132 c 0,84.81 0,169.62 0,257 6.27,1.32 12.54,2.64 19,4 3.58235,0.88453 7.13325,1.77516 10.6875,2.75 4.11469,1.11375 4.11469,1.11375 8.3125,2.25 0,7.59 0,15.18 0,23 -38.61,0 -77.22,0 -117,0 0,-7.59 0,-15.18 0,-23 11.95864,-3.26145 23.92474,-6.12494 36,-9 0,-84.81 0,-169.62 0,-257 -16.83,-3.96 -16.83,-3.96 -34,-8 -0.66,-0.33 -1.32,-0.66 -2,-1 0,-7.59 0,-15.18 0,-23 z"
     fill="#000000"
     id="path5" />
  <path
     d="m 1246,356 c 23.1,0 46.2,0 70,0 0,23.1 0,46.2 0,70 -23.1,0 -46.2,0 -70,0 0,-23.1 0,-46.2 0,-70 z"
     fill="#0A0D6E"
     id="path6"
     style="fill:#97a50e;fill-opacity:1" />
  <path
     d="m 1246,226 c 23.1,0 46.2,0 70,0 0,23.1 0,46.2 0,70 -23.1,0 -46.2,0 -70,0 0,-23.1 0,-46.2 0,-70 z"
     fill="#0A0D6E"
     id="path7"
     style="fill:#97a50e;fill-opacity:1" />
  <path
     d="m 1246,96 c 23.1,0 46.2,0 70,0 0,23.1 0,46.2 0,70 -23.1,0 -46.2,0 -70,0 0,-23.1 0,-46.2 0,-70 z"
     fill="#0A0D6E"
     id="path8"
     style="fill:#97a50a;fill-opacity:1" />
</svg>
